<mxfile host="Electron" modified="2023-08-18T09:52:49.082Z" agent="Mozilla/5.0 (Windows NT 10.0; Win64; x64) AppleWebKit/537.36 (KHTML, like Gecko) draw.io/21.4.0 Chrome/112.0.5615.204 Electron/24.5.1 Safari/537.36" etag="DeA9awLdTOtrc7wzL0Qd" version="21.4.0" type="device">
  <diagram name="Page-1" id="VObvZTAVGM3DBdfjOwbl">
    <mxGraphModel dx="1276" dy="586" grid="1" gridSize="10" guides="1" tooltips="1" connect="1" arrows="1" fold="1" page="1" pageScale="1" pageWidth="827" pageHeight="1169" math="0" shadow="0">
      <root>
        <mxCell id="0" />
        <mxCell id="1" parent="0" />
        <mxCell id="0ES5Gij3LRBZeiJNQc-c-1" value="&lt;span style=&quot;font-size: 18px;&quot;&gt;&lt;b&gt;Receivable - add&lt;/b&gt;&lt;/span&gt;" style="text;html=1;strokeColor=none;fillColor=none;align=center;verticalAlign=middle;whiteSpace=wrap;rounded=0;" parent="1" vertex="1">
          <mxGeometry x="40" y="60" width="180" height="40" as="geometry" />
        </mxCell>
        <mxCell id="0ES5Gij3LRBZeiJNQc-c-2" value="" style="ellipse;fillColor=strokeColor;html=1;" parent="1" vertex="1">
          <mxGeometry x="364" y="130" width="30" height="30" as="geometry" />
        </mxCell>
        <mxCell id="0ES5Gij3LRBZeiJNQc-c-3" value="Sale Entry&lt;br&gt;exists?" style="html=1;whiteSpace=wrap;aspect=fixed;shape=isoRectangle;" parent="1" vertex="1">
          <mxGeometry x="304" y="191" width="150" height="90" as="geometry" />
        </mxCell>
        <mxCell id="0ES5Gij3LRBZeiJNQc-c-4" value="ReceivablesQueue &lt;br&gt;exists?" style="html=1;whiteSpace=wrap;aspect=fixed;shape=isoRectangle;" parent="1" vertex="1">
          <mxGeometry x="304" y="321" width="150" height="90" as="geometry" />
        </mxCell>
        <mxCell id="0ES5Gij3LRBZeiJNQc-c-5" value="" style="ellipse;html=1;shape=endState;fillColor=strokeColor;" parent="1" vertex="1">
          <mxGeometry x="364" y="760" width="30" height="30" as="geometry" />
        </mxCell>
        <mxCell id="0ES5Gij3LRBZeiJNQc-c-6" value="Create ReceivablesQueue" style="rounded=1;whiteSpace=wrap;html=1;" parent="1" vertex="1">
          <mxGeometry x="489" y="336" width="120" height="60" as="geometry" />
        </mxCell>
        <mxCell id="0ES5Gij3LRBZeiJNQc-c-7" value="" style="endArrow=classic;html=1;rounded=0;exitX=0.5;exitY=1;exitDx=0;exitDy=0;exitPerimeter=0;entryX=0.502;entryY=0.019;entryDx=0;entryDy=0;entryPerimeter=0;" parent="1" target="0ES5Gij3LRBZeiJNQc-c-3" edge="1">
          <mxGeometry width="50" height="50" relative="1" as="geometry">
            <mxPoint x="379" y="161" as="sourcePoint" />
            <mxPoint x="379" y="190" as="targetPoint" />
          </mxGeometry>
        </mxCell>
        <mxCell id="0ES5Gij3LRBZeiJNQc-c-8" value="" style="endArrow=classic;html=1;rounded=0;exitX=0.989;exitY=0.497;exitDx=0;exitDy=0;exitPerimeter=0;entryX=0;entryY=0.5;entryDx=0;entryDy=0;" parent="1" source="0ES5Gij3LRBZeiJNQc-c-4" target="0ES5Gij3LRBZeiJNQc-c-6" edge="1">
          <mxGeometry width="50" height="50" relative="1" as="geometry">
            <mxPoint x="209" y="290" as="sourcePoint" />
            <mxPoint x="259" y="240" as="targetPoint" />
          </mxGeometry>
        </mxCell>
        <mxCell id="0ES5Gij3LRBZeiJNQc-c-9" value="Receivable&lt;br&gt;exists ?" style="html=1;whiteSpace=wrap;aspect=fixed;shape=isoRectangle;" parent="1" vertex="1">
          <mxGeometry x="304" y="450" width="150" height="90" as="geometry" />
        </mxCell>
        <mxCell id="0ES5Gij3LRBZeiJNQc-c-10" value="" style="endArrow=classic;html=1;rounded=0;entryX=0.5;entryY=0.022;entryDx=0;entryDy=0;entryPerimeter=0;exitX=0.499;exitY=0.981;exitDx=0;exitDy=0;exitPerimeter=0;" parent="1" source="0ES5Gij3LRBZeiJNQc-c-4" target="0ES5Gij3LRBZeiJNQc-c-9" edge="1">
          <mxGeometry width="50" height="50" relative="1" as="geometry">
            <mxPoint x="379" y="410" as="sourcePoint" />
            <mxPoint x="378.5799999999999" y="450" as="targetPoint" />
          </mxGeometry>
        </mxCell>
        <mxCell id="0ES5Gij3LRBZeiJNQc-c-11" value="No" style="text;html=1;strokeColor=none;fillColor=none;align=center;verticalAlign=middle;whiteSpace=wrap;rounded=0;" parent="1" vertex="1">
          <mxGeometry x="439" y="340" width="60" height="30" as="geometry" />
        </mxCell>
        <mxCell id="0ES5Gij3LRBZeiJNQc-c-12" value="" style="endArrow=classic;html=1;rounded=0;exitX=0.002;exitY=0.5;exitDx=0;exitDy=0;exitPerimeter=0;edgeStyle=orthogonalEdgeStyle;" parent="1" source="0ES5Gij3LRBZeiJNQc-c-3" edge="1">
          <mxGeometry width="50" height="50" relative="1" as="geometry">
            <mxPoint x="369" y="400" as="sourcePoint" />
            <mxPoint x="379" y="740" as="targetPoint" />
            <Array as="points">
              <mxPoint x="219" y="236" />
              <mxPoint x="219" y="740" />
            </Array>
          </mxGeometry>
        </mxCell>
        <mxCell id="0ES5Gij3LRBZeiJNQc-c-13" value="Create receivable" style="rounded=1;whiteSpace=wrap;html=1;" parent="1" vertex="1">
          <mxGeometry x="319" y="570" width="120" height="60" as="geometry" />
        </mxCell>
        <mxCell id="0ES5Gij3LRBZeiJNQc-c-14" value="" style="endArrow=classic;html=1;rounded=0;entryX=0.5;entryY=0;entryDx=0;entryDy=0;" parent="1" target="0ES5Gij3LRBZeiJNQc-c-5" edge="1">
          <mxGeometry width="50" height="50" relative="1" as="geometry">
            <mxPoint x="379" y="720" as="sourcePoint" />
            <mxPoint x="419" y="420" as="targetPoint" />
          </mxGeometry>
        </mxCell>
        <mxCell id="0ES5Gij3LRBZeiJNQc-c-15" value="No" style="text;html=1;strokeColor=none;fillColor=none;align=center;verticalAlign=middle;whiteSpace=wrap;rounded=0;" parent="1" vertex="1">
          <mxGeometry x="229" y="211" width="60" height="30" as="geometry" />
        </mxCell>
        <mxCell id="0ES5Gij3LRBZeiJNQc-c-16" value="" style="endArrow=classic;html=1;rounded=0;entryX=0.5;entryY=0.014;entryDx=0;entryDy=0;entryPerimeter=0;exitX=0.5;exitY=0.981;exitDx=0;exitDy=0;exitPerimeter=0;" parent="1" source="0ES5Gij3LRBZeiJNQc-c-3" target="0ES5Gij3LRBZeiJNQc-c-4" edge="1">
          <mxGeometry width="50" height="50" relative="1" as="geometry">
            <mxPoint x="379" y="280" as="sourcePoint" />
            <mxPoint x="378.58000000000004" y="321" as="targetPoint" />
          </mxGeometry>
        </mxCell>
        <mxCell id="0ES5Gij3LRBZeiJNQc-c-17" value="" style="endArrow=classic;html=1;rounded=0;exitX=0.5;exitY=1;exitDx=0;exitDy=0;edgeStyle=orthogonalEdgeStyle;" parent="1" source="0ES5Gij3LRBZeiJNQc-c-6" edge="1">
          <mxGeometry width="50" height="50" relative="1" as="geometry">
            <mxPoint x="499" y="390" as="sourcePoint" />
            <mxPoint x="379" y="430" as="targetPoint" />
            <Array as="points">
              <mxPoint x="551" y="396" />
              <mxPoint x="551" y="430" />
            </Array>
          </mxGeometry>
        </mxCell>
        <mxCell id="0ES5Gij3LRBZeiJNQc-c-18" value="Yes" style="text;html=1;strokeColor=none;fillColor=none;align=center;verticalAlign=middle;whiteSpace=wrap;rounded=0;" parent="1" vertex="1">
          <mxGeometry x="343" y="411" width="32" height="30" as="geometry" />
        </mxCell>
        <mxCell id="0ES5Gij3LRBZeiJNQc-c-19" value="" style="endArrow=classic;html=1;rounded=0;exitX=0.5;exitY=1;exitDx=0;exitDy=0;exitPerimeter=0;entryX=0.502;entryY=0.019;entryDx=0;entryDy=0;entryPerimeter=0;" parent="1" edge="1">
          <mxGeometry width="50" height="50" relative="1" as="geometry">
            <mxPoint x="378.58000000000004" y="538" as="sourcePoint" />
            <mxPoint x="378.58000000000004" y="570" as="targetPoint" />
          </mxGeometry>
        </mxCell>
        <mxCell id="0ES5Gij3LRBZeiJNQc-c-20" value="No" style="text;html=1;strokeColor=none;fillColor=none;align=center;verticalAlign=middle;whiteSpace=wrap;rounded=0;" parent="1" vertex="1">
          <mxGeometry x="329" y="540" width="60" height="30" as="geometry" />
        </mxCell>
        <mxCell id="0ES5Gij3LRBZeiJNQc-c-21" value="" style="endArrow=classic;html=1;rounded=0;exitX=1.002;exitY=0.499;exitDx=0;exitDy=0;exitPerimeter=0;edgeStyle=orthogonalEdgeStyle;" parent="1" source="0ES5Gij3LRBZeiJNQc-c-9" edge="1">
          <mxGeometry width="50" height="50" relative="1" as="geometry">
            <mxPoint x="499" y="390" as="sourcePoint" />
            <mxPoint x="379" y="740" as="targetPoint" />
            <Array as="points">
              <mxPoint x="550" y="495" />
              <mxPoint x="550" y="740" />
            </Array>
          </mxGeometry>
        </mxCell>
        <mxCell id="0ES5Gij3LRBZeiJNQc-c-22" value="Update&lt;br&gt;SaleEntry" style="rounded=1;whiteSpace=wrap;html=1;" parent="1" vertex="1">
          <mxGeometry x="319" y="660" width="120" height="60" as="geometry" />
        </mxCell>
        <mxCell id="0ES5Gij3LRBZeiJNQc-c-23" value="" style="endArrow=classic;html=1;rounded=0;exitX=0.5;exitY=1;exitDx=0;exitDy=0;exitPerimeter=0;entryX=0.496;entryY=0;entryDx=0;entryDy=0;entryPerimeter=0;" parent="1" target="0ES5Gij3LRBZeiJNQc-c-22" edge="1">
          <mxGeometry width="50" height="50" relative="1" as="geometry">
            <mxPoint x="378.58000000000004" y="630" as="sourcePoint" />
            <mxPoint x="378.58000000000004" y="662" as="targetPoint" />
          </mxGeometry>
        </mxCell>
        <mxCell id="0ES5Gij3LRBZeiJNQc-c-24" value="Yes" style="text;html=1;strokeColor=none;fillColor=none;align=center;verticalAlign=middle;whiteSpace=wrap;rounded=0;" parent="1" vertex="1">
          <mxGeometry x="439" y="470" width="60" height="30" as="geometry" />
        </mxCell>
        <mxCell id="0ES5Gij3LRBZeiJNQc-c-25" value="Yes" style="text;html=1;strokeColor=none;fillColor=none;align=center;verticalAlign=middle;whiteSpace=wrap;rounded=0;" parent="1" vertex="1">
          <mxGeometry x="348" y="281" width="27" height="30" as="geometry" />
        </mxCell>
      </root>
    </mxGraphModel>
  </diagram>
</mxfile>
